# xmcd CD database file
#
# Track frame offsets:
#	150
#	27063
#	60053
#	88883
#	124540
#	150898
#	181255
#	209645
#	237508
#
# Disc length: 3602 seconds
#
# Revision: 2
# Processed by: cddbd v1.5.2PL0 Copyright (c) Steve Scherf et al.
# Submitted via: CDex 1.81
#
DISCID=670e1009
DTITLE=Manhattan Jazz Quintet - Come Together
DYEAR=2005
DGENRE=Jazz
TTITLE0=Come Together
TTITLE1=A Day In The Life
TTITLE2=Big Appile Jam Part ?
TTITLE3=Michelle
TTITLE4=We Can Work It Out
TTITLE5=I Was Born To Love You
TTITLE6=All My Loving
TTITLE7=Don't Stop Me Now
TTITLE8=Over The Rainbow
EXTD=YEAR: 2005
EXTT0=
EXTT1=
EXTT2=
EXTT3=
EXTT4=
EXTT5=
EXTT6=
EXTT7=
EXTT8=
PLAYORDER=
